<?xml version="1.0" encoding="utf-8"?>
<!-- Generator: Adobe Illustrator 21.0.0, SVG Export Plug-In . SVG Version: 6.00 Build 0)  -->
<svg version="1.1" id="Layer_1" xmlns="http://www.w3.org/2000/svg" xmlns:xlink="http://www.w3.org/1999/xlink" x="0px" y="0px"
	 viewBox="0 0 144 144" style="enable-background:new 0 0 144 144;" xml:space="preserve">
<style type="text/css">
	.st0{clip-path:url(#XMLID_2_);fill:#00B6E1;}
	.st1{clip-path:url(#XMLID_3_);fill:#00B6E1;}
	.st2{clip-path:url(#XMLID_4_);fill:#00B6E1;}
	.st3{clip-path:url(#XMLID_5_);fill:#00B6E1;}
	.st4{clip-path:url(#XMLID_6_);fill:#00B6E1;}
	.st5{clip-path:url(#XMLID_7_);fill:#00B6E1;}
	.st6{clip-path:url(#XMLID_8_);fill:#00B6E1;}
	.st7{clip-path:url(#XMLID_9_);fill:#00B6E1;}
	.st8{clip-path:url(#XMLID_10_);fill:#00B6E1;}
	.st9{clip-path:url(#XMLID_11_);fill:#00B6E1;}
	.st10{fill:#00B6E1;}
</style>
<g>
	<g id="XMLID_2114_">
		<defs>
			<path id="XMLID_2118_" d="M14.9,120.4l0.8-1.4c0.1-0.2,0.4-0.2,0.6-0.1c0.1,0,1.3,0.9,2.4,0.9c0.7,0,1.1-0.4,1.1-1
				c0-0.7-0.6-1.2-1.7-1.7c-1.4-0.6-3.2-1.7-3.2-3.7c0-1.6,1.3-3.3,3.8-3.3c1.7,0,3.1,0.9,3.6,1.2c0.2,0.1,0.2,0.4,0.1,0.5l-0.8,1.3
				c-0.1,0.2-0.4,0.3-0.6,0.2c-0.1-0.1-1.4-1-2.4-1c-0.6,0-1,0.4-1,0.8c0,0.6,0.5,1.1,1.8,1.6c1.3,0.5,3.4,1.5,3.4,3.8
				c0,1.7-1.5,3.4-3.9,3.4c-2.2,0-3.4-0.9-3.7-1.3C14.8,120.7,14.8,120.7,14.9,120.4z"/>
		</defs>
		<use xlink:href="#XMLID_2118_"  style="overflow:visible;fill:#00B6E1;"/>
		<clipPath id="XMLID_2_">
			<use xlink:href="#XMLID_2118_"  style="overflow:visible;"/>
		</clipPath>
		<rect id="XMLID_2115_" x="14.8" y="110.2" class="st0" width="0.1" height="11.9"/>
		<rect id="XMLID_2116_" x="14.8" y="110.2" class="st0" width="7.8" height="11.9"/>
		<path id="XMLID_2117_" class="st0" d="M22.7,122.2v-11.9V122.2z"/>
	</g>
	<g id="XMLID_2109_">
		<defs>
			<path id="XMLID_2113_" d="M29.8,110.2c1.7,0,2.9,0.5,4,1.5c0.1,0.1,0.1,0.3,0,0.5l-1.3,1.3c-0.1,0.1-0.3,0.1-0.4,0
				c-0.6-0.5-1.4-0.8-2.2-0.8c-1.9,0-3.3,1.6-3.3,3.4c0,1.8,1.4,3.4,3.3,3.4c0.8,0,1.6-0.3,2.2-0.8c0.1-0.1,0.3-0.1,0.4,0l1.3,1.4
				c0.1,0.1,0.1,0.3,0,0.4c-1.1,1.1-2.6,1.6-4,1.6c-3.3,0-6-2.6-6-6C23.8,112.9,26.5,110.2,29.8,110.2z"/>
		</defs>
		<use xlink:href="#XMLID_2113_"  style="overflow:visible;fill:#00B6E1;"/>
		<clipPath id="XMLID_3_">
			<use xlink:href="#XMLID_2113_"  style="overflow:visible;"/>
		</clipPath>
		<path id="XMLID_2110_" class="st1" d="M23.8,110.2v11.9V110.2z"/>
		<rect id="XMLID_2111_" x="23.8" y="110.2" class="st1" width="10.1" height="11.9"/>
		<rect id="XMLID_2112_" x="34" y="110.2" class="st1" width="0" height="11.9"/>
	</g>
	<g id="XMLID_2104_">
		<defs>
			<path id="XMLID_2108_" d="M35.8,110.7c0-0.2,0.1-0.3,0.3-0.3h2c0.2,0,0.3,0.1,0.3,0.3v4.2h4.7v-4.2c0-0.2,0.1-0.3,0.3-0.3h2
				c0.2,0,0.3,0.1,0.3,0.3v11c0,0.2-0.1,0.3-0.3,0.3h-2c-0.2,0-0.3-0.1-0.3-0.3v-4.4h-4.7v4.4c0,0.2-0.1,0.3-0.3,0.3h-2
				c-0.2,0-0.3-0.1-0.3-0.3V110.7z"/>
		</defs>
		<use xlink:href="#XMLID_2108_"  style="overflow:visible;fill:#00B6E1;"/>
		<clipPath id="XMLID_4_">
			<use xlink:href="#XMLID_2108_"  style="overflow:visible;"/>
		</clipPath>
		<path id="XMLID_2105_" class="st2" d="M35.8,110.4V122V110.4z"/>
		<rect id="XMLID_2106_" x="35.8" y="110.4" class="st2" width="10" height="11.6"/>
		<path id="XMLID_2107_" class="st2" d="M45.8,122v-11.6V122z"/>
	</g>
	<g id="XMLID_2098_">
		<defs>
			<path id="XMLID_2103_" d="M53.8,110.2c3.3,0,6,2.7,6,6c0,3.3-2.7,6-6,6c-3.3,0-6-2.6-6-6C47.8,112.9,50.4,110.2,53.8,110.2z
				 M53.8,119.5c1.8,0,3.3-1.5,3.3-3.3c0-1.8-1.5-3.3-3.3-3.3c-1.8,0-3.3,1.5-3.3,3.3C50.5,118,52,119.5,53.8,119.5z"/>
		</defs>
		<use xlink:href="#XMLID_2103_"  style="overflow:visible;fill:#00B6E1;"/>
		<clipPath id="XMLID_5_">
			<use xlink:href="#XMLID_2103_"  style="overflow:visible;"/>
		</clipPath>
		<rect id="XMLID_2099_" x="50.5" y="112.9" class="st3" width="6.6" height="6.6"/>
		<path id="XMLID_2100_" class="st3" d="M47.8,110.2v11.9V110.2z"/>
		<rect id="XMLID_2101_" x="47.8" y="110.2" class="st3" width="11.9" height="11.9"/>
		<path id="XMLID_2102_" class="st3" d="M59.7,122.2v-11.9V122.2z"/>
	</g>
	<g id="XMLID_2092_">
		<defs>
			<path id="XMLID_2097_" d="M66.9,110.2c3.3,0,6,2.7,6,6c0,3.3-2.7,6-6,6c-3.3,0-6-2.6-6-6C60.9,112.9,63.5,110.2,66.9,110.2z
				 M66.9,119.5c1.8,0,3.3-1.5,3.3-3.3c0-1.8-1.5-3.3-3.3-3.3c-1.8,0-3.3,1.5-3.3,3.3C63.6,118,65.1,119.5,66.9,119.5z"/>
		</defs>
		<use xlink:href="#XMLID_2097_"  style="overflow:visible;fill:#00B6E1;"/>
		<clipPath id="XMLID_6_">
			<use xlink:href="#XMLID_2097_"  style="overflow:visible;"/>
		</clipPath>
		<rect id="XMLID_2093_" x="63.6" y="112.9" class="st4" width="6.6" height="6.6"/>
		<path id="XMLID_2094_" class="st4" d="M60.9,110.2v11.9V110.2z"/>
		<rect id="XMLID_2095_" x="60.9" y="110.2" class="st4" width="11.9" height="11.9"/>
		<path id="XMLID_2096_" class="st4" d="M72.8,122.2v-11.9V122.2z"/>
	</g>
	<g id="XMLID_2087_">
		<defs>
			<path id="XMLID_2091_" d="M74.8,110.7c0-0.2,0.1-0.3,0.3-0.3h2c0.2,0,0.3,0.1,0.3,0.3v8.9h3.9c0.2,0,0.3,0.1,0.3,0.3v1.8
				c0,0.2-0.1,0.3-0.3,0.3h-6.2c-0.2,0-0.3-0.1-0.3-0.3V110.7z"/>
		</defs>
		<use xlink:href="#XMLID_2091_"  style="overflow:visible;fill:#00B6E1;"/>
		<clipPath id="XMLID_7_">
			<use xlink:href="#XMLID_2091_"  style="overflow:visible;"/>
		</clipPath>
		<path id="XMLID_2088_" class="st5" d="M74.8,110.4V122V110.4z"/>
		<rect id="XMLID_2089_" x="74.8" y="110.4" class="st5" width="6.9" height="11.6"/>
		<path id="XMLID_2090_" class="st5" d="M81.7,122v-11.6V122z"/>
	</g>
	<g id="XMLID_2080_">
		<defs>
			<path id="XMLID_2086_" d="M83.3,110.7c0-0.2,0.1-0.3,0.3-0.3h3.9c2,0,3.6,1.3,3.6,3.1c0,1.3-1.1,2.2-1.9,2.6
				c0.9,0.4,2.2,1.2,2.2,2.7c0,1.9-1.6,3.2-3.6,3.2h-4.1c-0.2,0-0.3-0.1-0.3-0.3V110.7z M87.2,115.1c0.6,0,1.2-0.5,1.2-1.2
				c0-0.7-0.5-1.1-1.2-1.1h-1.3v2.3H87.2z M87.4,119.6c0.6,0,1.2-0.5,1.2-1.2c0-0.7-0.7-1.2-1.4-1.2h-1.3v2.4H87.4z"/>
		</defs>
		<use xlink:href="#XMLID_2086_"  style="overflow:visible;fill:#00B6E1;"/>
		<clipPath id="XMLID_8_">
			<use xlink:href="#XMLID_2086_"  style="overflow:visible;"/>
		</clipPath>
		<rect id="XMLID_2081_" x="85.9" y="117.3" class="st6" width="2.7" height="2.4"/>
		<rect id="XMLID_2082_" x="85.9" y="112.8" class="st6" width="2.5" height="2.3"/>
		<path id="XMLID_2083_" class="st6" d="M83.3,110.4V122V110.4z"/>
		<rect id="XMLID_2084_" x="83.3" y="110.4" class="st6" width="8" height="11.6"/>
		<path id="XMLID_2085_" class="st6" d="M91.4,122v-11.6V122z"/>
	</g>
	<g id="XMLID_2074_">
		<defs>
			<path id="XMLID_2079_" d="M98.6,110.2c3.3,0,6,2.7,6,6c0,3.3-2.7,6-6,6c-3.3,0-6-2.6-6-6C92.6,112.9,95.3,110.2,98.6,110.2z
				 M98.6,119.5c1.8,0,3.3-1.5,3.3-3.3c0-1.8-1.5-3.3-3.3-3.3c-1.8,0-3.3,1.5-3.3,3.3C95.3,118,96.8,119.5,98.6,119.5z"/>
		</defs>
		<use xlink:href="#XMLID_2079_"  style="overflow:visible;fill:#00B6E1;"/>
		<clipPath id="XMLID_9_">
			<use xlink:href="#XMLID_2079_"  style="overflow:visible;"/>
		</clipPath>
		<rect id="XMLID_2075_" x="95.3" y="112.9" class="st7" width="6.6" height="6.6"/>
		<path id="XMLID_2076_" class="st7" d="M92.6,110.2v11.9V110.2z"/>
		<rect id="XMLID_2077_" x="92.6" y="110.2" class="st7" width="11.9" height="11.9"/>
		<path id="XMLID_2078_" class="st7" d="M104.6,122.2v-11.9V122.2z"/>
	</g>
	<g id="XMLID_2013_">
		<defs>
			<path id="XMLID_2073_" d="M111.7,110.2c3.3,0,6,2.7,6,6c0,3.3-2.7,6-6,6c-3.3,0-6-2.6-6-6C105.7,112.9,108.4,110.2,111.7,110.2z
				 M111.7,119.5c1.8,0,3.3-1.5,3.3-3.3c0-1.8-1.5-3.3-3.3-3.3c-1.8,0-3.3,1.5-3.3,3.3C108.4,118,109.9,119.5,111.7,119.5z"/>
		</defs>
		<use xlink:href="#XMLID_2073_"  style="overflow:visible;fill:#00B6E1;"/>
		<clipPath id="XMLID_10_">
			<use xlink:href="#XMLID_2073_"  style="overflow:visible;"/>
		</clipPath>
		<rect id="XMLID_2014_" x="108.4" y="112.9" class="st8" width="6.6" height="6.6"/>
		<path id="XMLID_2015_" class="st8" d="M105.7,110.2v11.9V110.2z"/>
		<rect id="XMLID_2016_" x="105.7" y="110.2" class="st8" width="11.9" height="11.9"/>
		<path id="XMLID_2072_" class="st8" d="M117.7,122.2v-11.9V122.2z"/>
	</g>
	<g id="XMLID_2008_">
		<defs>
			<path id="XMLID_2012_" d="M119.7,110.8c0-0.2,0.2-0.4,0.4-0.4h1.9c0.2,0,0.4,0.2,0.4,0.4v4.4l3.7-4.6c0.1-0.1,0.2-0.2,0.3-0.2
				h2.1c0.3,0,0.5,0.4,0.3,0.6l-3.9,4.9l4.2,5.5c0.2,0.2,0,0.6-0.3,0.6h-2.3c-0.1,0-0.3-0.1-0.3-0.1l-3.8-5.2v4.9
				c0,0.2-0.2,0.4-0.4,0.4h-1.9c-0.2,0-0.4-0.2-0.4-0.4V110.8z"/>
		</defs>
		<use xlink:href="#XMLID_2012_"  style="overflow:visible;fill:#00B6E1;"/>
		<clipPath id="XMLID_11_">
			<use xlink:href="#XMLID_2012_"  style="overflow:visible;"/>
		</clipPath>
		<path id="XMLID_2009_" class="st9" d="M119.7,110.4V122V110.4z"/>
		<rect id="XMLID_2010_" x="119.7" y="110.4" class="st9" width="9.5" height="11.6"/>
		<rect id="XMLID_2011_" x="129.2" y="110.4" class="st9" width="0.1" height="11.6"/>
	</g>
	<path id="XMLID_23_" class="st10" d="M111.6,35.5L75,15.8c-1.9-1-4.3-1-6.2,0L32.5,35.5c-2.1,1.1-3.4,3.3-3.4,5.7v52.3
		c0,2.1,1,4,2.6,5.2c1.6,1.2,3.8,1.6,5.7,1l34.5-10.1l34.7,10.1c0.6,0.2,1.2,0.3,1.8,0.3c1.4,0,2.8-0.4,3.9-1.3
		c1.6-1.2,2.6-3.2,2.6-5.2V41.2C115,38.8,113.7,36.6,111.6,35.5z M109.5,93.5c0,0.3-0.2,0.7-0.4,0.9c-0.2,0.1-0.4,0.2-0.7,0.2
		c-0.1,0-0.2,0-0.3,0l-26.8-7.8c0.9-0.4,1.8-0.9,2.7-1.5l23.4,6.8V41.9L71.9,22.8L36.7,41.9V92l24-7l16-4.7c1.3-0.4,2.5-1,3.6-1.8
		l0,0c3.6-2.5,5.8-6.6,5.8-11c0-7.5-6.1-13.6-13.6-13.6c-7.5,0-13.6,6.1-13.6,13.6c0,3.9,1.7,7.7,4.7,10.2c0.2,0.2,0.3,0.4,0.4,0.7
		v0c0,0,0,0,0,0L61.8,79c-3.2-3-5-7.2-5-11.5c0-8.7,7.1-15.8,15.8-15.8c8.7,0,15.8,7.1,15.8,15.8c0,4.6-2,8.9-5.4,11.8
		c-1.6,1.4-3.5,2.5-5.6,3.1l-1.5,0.5l-12.5,3.7c0,0,0,0,0,0l-27.4,8c-0.3,0.1-0.7,0-1-0.2c-0.3-0.2-0.4-0.5-0.4-0.9V41.2
		c0-0.4,0.2-0.8,0.6-1l36.3-19.7c0.3-0.2,0.7-0.2,1,0L109,40.3c0.4,0.2,0.6,0.6,0.6,1V93.5z M72.5,46.3c-11.7,0-21.2,9.5-21.2,21.2
		c0,5,1.8,9.6,4.7,13.3l-13.9,4.1V45.1l29.8-16.2l30,16.2v39.7L88.8,81c3-3.7,4.9-8.4,4.9-13.5C93.7,55.8,84.2,46.3,72.5,46.3z
		 M64.4,67.5c0-4.5,3.7-8.1,8.1-8.1c4.5,0,8.1,3.7,8.1,8.1s-3.7,8.1-8.1,8.1C68,75.6,64.4,71.9,64.4,67.5z M70.1,76.6
		c0.1,0,0.3-0.1,0.5-0.1C70.4,76.5,70.2,76.5,70.1,76.6l-2,0.6L70.1,76.6z"/>
</g>
</svg>
